PathFileType	4	(x/y/z)	S08_P20_T07
DataRate	CameraRate	NumFrames	NumMarkers	Units	OrigDataRate	OrigDataStartFrame	OrigNumFrames
240	240	6	51	mm	240	234	373
Frame#	Time	Sternum			R.Acromium			L.Acromium			Top.Head			R.ASIS			L.ASIS			R.PSIS			L.PSIS			R.Great.Tro			L.Great.Tro			R.Iliac.Crest			L.Iliac.Crest			V.Sacral			R.Thigh.Upper.Post			R.Thigh.Lower.Ant			R.Thigh.Lower.Post			R.Thigh.Upper.Ant			R.Knee.Lat			R.Knee.Med			R.Shank.Upper.Post			R.Shank.Lower.Ant			R.Shank.Lower.Post			R.Shank.Upper.Ant			R.Ankle.Lat			R.Ankle.Med			R.Heel.Upper			R.Heel.Med			R.Heel.Lat			R.Toe.Lat			R.Toe.Med			R.Toe.Tip			L.Thigh.Upper.Post			L.Thigh.Lower.Ant			L.Thigh.Lower.Post			L.Thigh.Upper.Ant			L.Knee.Lat			L.Knee.Med			L.Shank.Upper.Post			L.Shank.Lower.Ant			L.Shank.Lower.Post			L.Shank.Upper.Ant			L.Ankle.Lat			L.Ankle.Med			L.Heel.Upper			L.Heel.Med			L.Heel.Lat			L.Toe.Lat			L.Toe.Med			L.Toe.Tip			Cervical.Spine			Back			
		X1	Y1	Z1	X2	Y2	Z2	X3	Y3	Z3	X4	Y4	Z4	X5	Y5	Z5	X6	Y6	Z6	X7	Y7	Z7	X8	Y8	Z8	X9	Y9	Z9	X10	Y10	Z10	X11	Y11	Z11	X12	Y12	Z12	X13	Y13	Z13	X14	Y14	Z14	X15	Y15	Z15	X16	Y16	Z16	X17	Y17	Z17	X18	Y18	Z18	X19	Y19	Z19	X20	Y20	Z20	X21	Y21	Z21	X22	Y22	Z22	X23	Y23	Z23	X24	Y24	Z24	X25	Y25	Z25	X26	Y26	Z26	X27	Y27	Z27	X28	Y28	Z28	X29	Y29	Z29	X30	Y30	Z30	X31	Y31	Z31	X32	Y32	Z32	X33	Y33	Z33	X34	Y34	Z34	X35	Y35	Z35	X36	Y36	Z36	X37	Y37	Z37	X38	Y38	Z38	X39	Y39	Z39	X40	Y40	Z40	X41	Y41	Z41	X42	Y42	Z42	X43	Y43	Z43	X44	Y44	Z44	X45	Y45	Z45	X46	Y46	Z46	X47	Y47	Z47	X48	Y48	Z48	X49	Y49	Z49	X50	Y50	Z50	X51	Y51	Z51	

234	0.97083	-62.463	1211.1	305.07	-171.11	1444.8	490.62	-215.26	1469.1	155.58	-180.52	1765.3	343.38	-88.744	994.44	422.4	-87.987	1001.4	191.38	-288.58	1016.8	343.4	-286.07	1019.8	250.18	-170.6	888.47	489.97	-161.55	889.36	120.51	-183.33	1063	466.37	-186.45	1079.9	159.05	-303.31	977.4	296.44	-232.11	695.78	468.31	-169.54	585.84	438.87	-237.93	606.56	447.35	-155.61	678.09	461.09	-231.29	497.83	431.05	-243.79	506.5	303.97	-381.24	368.99	430.09	-359.45	283.69	409.81	-420.42	303.52	419.99	-319.55	349.8	422.39	-506.4	158.36	378.96	-468.31	158.85	304.84	-564.75	144.2	328.07	-561.89	116.81	299.79	-571.71	118.7	360.91	NaN	NaN	NaN	-395.21	47.372	295.31	-335.71	42.16	345.46	-106.81	680.17	143.12	5.9231	627.31	166.2	-59.43	604.42	163.15	-37.295	701.85	140.14	-8.0078	521.07	180.47	-6.9222	522.45	306.14	-25.582	334.85	177.23	56.47	262.44	201.1	-15.12	262.85	192.3	39.355	335.56	186.32	42.345	99.567	204.9	62.202	108.67	293.61	-8.3324	71.182	253.6	8.9731	38.498	285.94	4.7324	44.133	221.87	180.12	52.797	198.23	192.85	61.791	312.26	255.6	88.783	266.62	-261.02	1499.7	325.65	-298.35	1215	334.82
235	0.975	-56.544	1211.4	304.73	-165.74	1444.9	490.22	-209.48	1469.2	155.1	-174.99	1765.4	343.14	-82.498	994.54	421.89	-81.807	1001.7	190.95	-282.4	1016.9	343.16	-279.92	1020.1	249.93	-163.94	888.14	489.48	-155.37	889.71	120.13	-177.14	1063	466.13	-180.3	1080.3	158.8	-297.14	977.55	296.11	-224.02	694.85	468.11	-160.48	585.35	439.23	-229.04	605.55	447.44	-147.38	677.8	461.12	-221.61	497.06	431.67	-233.7	505.28	304.56	-373.14	370.44	430.73	-352.76	284.75	410.69	-413.39	305.62	420.79	-311.8	350.25	423.21	-501.78	161.99	380.28	-463.39	161.69	306.05	-559.82	149.91	329.18	-557.92	122.86	300.62	-567.74	124.49	361.76	NaN	NaN	NaN	-394.31	48.173	295.62	-335.42	41.863	345.5	-101.05	680.47	142.83	11.448	627.3	166.36	-53.958	604.61	162.99	-31.476	701.99	140.21	-2.8463	521.04	180.48	-2.5552	522.35	306.13	-21.815	334.88	177.04	59.429	261.77	201.45	-12.075	262.8	192.13	43.063	335.04	186.58	43.268	99.275	205.09	63.135	107.92	293.83	-7.7186	71.638	253.81	9.0179	38.62	285.99	4.8952	44.469	221.93	180.54	51.088	198.46	193.35	59.529	312.52	256.5	85.836	267.05	-255.46	1499.7	325.12	-292.43	1214.9	334.32
236	0.97917	-50.64	1211.7	304.4	-160.37	1445	489.82	-203.69	1469.4	154.63	-169.47	1765.6	342.9	-76.275	994.68	421.38	-75.67	1002	190.53	-276.27	1017	342.93	-273.81	1020.3	249.7	-157.27	887.83	488.98	-149.23	890.13	119.73	-170.97	1063	465.89	-174.18	1080.6	158.55	-291	977.73	295.78	-215.81	693.9	467.94	-151.24	584.88	439.64	-219.98	604.54	447.6	-139.02	677.53	461.2	-211.69	496.3	432.34	-223.31	504.02	305.17	-364.74	371.94	431.4	-345.77	285.86	411.62	-406.05	307.79	421.62	-303.77	350.75	424.07	-496.8	165.75	381.66	-458.17	164.62	307.3	-554.46	155.85	330.35	-553.57	129.17	301.51	-563.39	130.56	362.67	NaN	NaN	NaN	-393.27	49.098	295.96	-335.05	41.554	345.55	-95.318	680.83	142.47	16.943	627.36	166.47	-48.51	604.87	162.77	-25.685	702.19	140.24	2.272	521.05	180.46	1.748	522.3	306.08	-18.124	334.96	176.8	62.306	261.15	201.76	-9.1089	262.8	191.92	46.692	334.56	186.79	44.098	99.037	205.27	63.988	107.24	294.01	-7.1816	72.067	253.99	9.0336	38.746	286.02	5.0085	44.79	221.97	180.9	49.533	198.6	193.79	57.429	312.71	257.31	83.077	267.38	-249.91	1499.8	324.58	-286.52	1214.9	333.81
237	0.98333	-44.753	1212.1	304.08	-155.02	1445.2	489.43	-197.87	1469.7	154.16	-163.95	1765.8	342.65	-70.081	994.86	420.86	-69.579	1002.4	190.1	-270.16	1017.2	342.73	-267.74	1020.7	249.49	-150.59	887.54	488.49	-143.12	890.64	119.31	-164.83	1063	465.66	-168.1	1081.1	158.32	-284.89	977.94	295.47	-207.48	692.93	467.82	-141.83	584.45	440.1	-210.76	603.51	447.81	-130.54	677.31	461.31	-201.53	495.53	433.05	-212.62	502.74	305.8	-356.04	373.49	432.11	-338.49	287.04	412.6	-398.41	310.02	422.5	-295.45	351.3	424.96	-491.47	169.65	383.1	-452.65	167.65	308.57	-548.66	162	331.59	-548.83	135.72	302.46	-558.63	136.89	363.65	NaN	NaN	NaN	-392.07	50.16	296.32	-334.59	41.235	345.62	-89.614	681.25	142.04	22.406	627.49	166.53	-43.087	605.17	162.49	-19.926	702.46	140.22	7.3395	521.11	180.38	6.0045	522.31	305.99	-14.519	335.09	176.53	65.092	260.58	202.01	-6.2316	262.86	191.69	50.23	334.13	186.94	44.84	98.851	205.44	64.764	106.62	294.18	-6.7122	72.462	254.15	9.0293	38.87	286.04	5.084	45.092	222	181.2	48.138	198.67	194.19	55.501	312.84	258.04	80.523	267.63	-244.35	1499.9	324.05	-280.63	1215	333.3
238	0.9875	-38.886	1212.5	303.77	-149.67	1445.4	489.03	-192.04	1470	153.71	-158.44	1766	342.4	-63.922	995.07	420.34	-63.539	1002.8	189.67	-264.1	1017.3	342.54	-261.72	1021	249.3	-143.91	887.25	487.99	-137.07	891.22	118.87	-158.72	1063.1	465.42	-162.05	1081.6	158.1	-278.83	978.19	295.16	-199.05	691.96	467.73	-132.28	584.06	440.6	-201.4	602.49	448.08	-121.95	677.12	461.46	-191.15	494.78	433.79	-201.66	501.43	306.42	-347.06	375.07	432.84	-330.93	288.29	413.6	-390.48	312.31	423.41	-286.85	351.89	425.87	-485.77	173.68	384.58	-446.84	170.78	309.86	-542.42	168.34	332.89	-543.68	142.49	303.47	-553.47	143.46	364.69	NaN	NaN	NaN	-390.68	51.372	296.71	-334.01	40.907	345.72	-83.945	681.71	141.56	27.831	627.68	166.55	-37.693	605.53	162.15	-14.206	702.78	140.16	12.346	521.2	180.27	10.23	522.36	305.86	-11.014	335.25	176.23	67.78	260.05	202.21	-3.4517	262.95	191.44	53.667	333.73	187.04	45.501	98.71	205.6	65.465	106.07	294.32	-6.3021	72.821	254.29	9.0122	38.989	286.05	5.1311	45.372	222.03	181.44	46.904	198.69	194.54	53.748	312.91	258.69	78.183	267.81	-238.79	1500	323.51	-274.75	1215.2	332.8
239	0.99167	-33.04	1212.9	303.47	-144.33	1445.6	488.64	-186.19	1470.4	153.27	-152.94	1766.3	342.16	-57.804	995.3	419.82	-57.551	1003.3	189.24	-258.09	1017.5	342.38	-255.76	1021.4	249.12	-137.24	886.98	487.51	-131.07	891.87	118.42	-152.65	1063.2	465.19	-156.05	1082.1	157.89	-272.81	978.47	294.85	-190.52	690.99	467.7	-122.59	583.71	441.13	-191.9	601.47	448.41	-113.26	676.97	461.64	-180.56	494.06	434.55	-190.44	500.12	307.04	-337.8	376.7	433.6	-323.08	289.61	414.63	-382.26	314.66	424.34	-277.99	352.52	426.79	-479.72	177.83	386.1	-440.73	174.01	311.16	-535.76	174.86	334.25	-538.13	149.46	304.54	-547.89	150.25	365.79	NaN	NaN	NaN	-389.08	52.743	297.14	-333.29	40.575	345.84	-78.316	682.22	141.03	33.211	627.93	166.52	-32.336	605.92	161.75	-8.5315	703.15	140.05	17.28	521.32	180.13	14.437	522.46	305.69	-7.6187	335.44	175.91	70.362	259.56	202.37	-0.77703	263.09	191.18	56.991	333.37	187.08	46.088	98.611	205.75	66.094	105.59	294.44	-5.9436	73.142	254.42	8.9877	39.101	286.06	5.1575	45.628	222.05	181.65	45.827	198.65	194.85	52.17	312.95	259.26	76.06	267.93	-233.24	1500.2	322.98	-268.89	1215.3	332.31
